<?xml version="1.0" encoding="UTF-8"?>
<svg xmlns="http://www.w3.org/2000/svg" width="20" height="16" viewBox="0 0 20 16">
  <g id="Layer_1" data-name="Layer 1">
    <path d="M4.08,.18C2.77,.18,1.7,1.24,1.7,2.56s1.07,2.38,2.38,2.38,2.38-1.07,2.38-2.38S5.4,.18,4.08,.18Zm0,5.44c-1.32,0-2.38,1.07-2.38,2.38s1.07,2.38,2.38,2.38,2.38-1.07,2.38-2.38-1.07-2.38-2.38-2.38Zm0,5.44c-1.32,0-2.38,1.07-2.38,2.38s1.07,2.38,2.38,2.38,2.38-1.07,2.38-2.38-1.07-2.38-2.38-2.38Zm12.25-6.12c1.32,0,2.38-1.07,2.38-2.38S17.64,.18,16.33,.18s-2.38,1.07-2.38,2.38,1.07,2.38,2.38,2.38Zm0,.68c-1.32,0-2.38,1.07-2.38,2.38s1.07,2.38,2.38,2.38,2.38-1.07,2.38-2.38-1.07-2.38-2.38-2.38ZM10.2,.18c-1.32,0-2.38,1.07-2.38,2.38s1.07,2.38,2.38,2.38,2.38-1.07,2.38-2.38S11.52,.18,10.2,.18Zm0,10.88c-1.32,0-2.38,1.07-2.38,2.38s1.07,2.38,2.38,2.38,2.38-1.07,2.38-2.38-1.07-2.38-2.38-2.38Zm6.12,0c-1.32,0-2.38,1.07-2.38,2.38s1.07,2.38,2.38,2.38,2.38-1.07,2.38-2.38-1.07-2.38-2.38-2.38Zm-6.12-5.44c-1.32,0-2.38,1.07-2.38,2.38s1.07,2.38,2.38,2.38,2.38-1.07,2.38-2.38-1.07-2.38-2.38-2.38Z"/>
  </g>
</svg>