<?xml version="1.0" encoding="UTF-8"?><svg id="Layer_1" xmlns="http://www.w3.org/2000/svg" viewBox="0 0 35 35" style="background-color: red">
<path class="cls-1" d="M22.91,6.38c0,2.93-2.37,5.3-5.3,5.3s-5.3-2.37-5.3-5.3S14.69,1.09,17.62,1.09s5.3,2.37,5.3,5.3Z" fill="#54565a"/>
<path class="cls-2" d="M11.67,17.68c0,2.92-2.37,5.3-5.3,5.3s-5.3-2.37-5.3-5.3,2.37-5.3,5.3-5.3,5.3,2.37,5.3,5.3Z" fill="#003b71"/>
<path class="cls-1" d="M34.16,17.69c0,2.92-2.37,5.29-5.3,5.29s-5.3-2.37-5.3-5.29,2.37-5.3,5.3-5.3,5.3,2.37,5.3,5.3Z" fill="#54565a"/>
<path class="cls-1" d="M22.91,28.88c0,2.93-2.37,5.3-5.3,5.3s-5.3-2.37-5.3-5.3,2.37-5.3,5.3-5.3,5.3,2.37,5.3,5.3Z" fill="#54565a"/></svg>